<mxfile host="app.diagrams.net" modified="2024-06-20T01:12:58.781Z" agent="Mozilla/5.0 (Windows NT 10.0; Win64; x64) AppleWebKit/537.36 (KHTML, like Gecko) Chrome/126.0.0.0 Safari/537.36 Edg/126.0.0.0" version="24.5.5" etag="amq1oYy30opHotFhliAJ" type="github">
  <diagram name="Page-1" id="8jgckHjD0KI4rgPVstM9">
    <mxGraphModel>
      <root>
        <mxCell id="0" />
        <mxCell id="1" parent="0" />
      </root>
    </mxGraphModel>
  </diagram>
</mxfile>
